<mxfile host="app.diagrams.net" modified="2023-12-01T18:09:20.353Z" agent="Mozilla/5.0 (Windows NT 10.0; Win64; x64) AppleWebKit/537.36 (KHTML, like Gecko) Chrome/119.0.0.0 Safari/537.36 Edg/119.0.0.0" etag="lg2xVZ6HYkqiKP7IGB_D" version="22.1.5" type="github">
  <diagram name="Página-1" id="gX3ImtvLsj86ZFGwrYs6">
    <mxGraphModel dx="1749" dy="511" grid="1" gridSize="10" guides="1" tooltips="1" connect="1" arrows="1" fold="1" page="1" pageScale="1" pageWidth="827" pageHeight="1169" math="0" shadow="0">
      <root>
        <mxCell id="0" />
        <mxCell id="1" parent="0" />
        <mxCell id="HMJsBfPP-Kqhdk2uCQWa-1" value="Autobuses" style="rounded=0;whiteSpace=wrap;html=1;" vertex="1" parent="1">
          <mxGeometry x="40" y="130" width="120" height="60" as="geometry" />
        </mxCell>
        <mxCell id="HMJsBfPP-Kqhdk2uCQWa-2" value="Conductor" style="rounded=0;whiteSpace=wrap;html=1;" vertex="1" parent="1">
          <mxGeometry x="330" y="290" width="120" height="60" as="geometry" />
        </mxCell>
        <mxCell id="HMJsBfPP-Kqhdk2uCQWa-6" value="" style="endArrow=classic;html=1;rounded=0;" edge="1" parent="1">
          <mxGeometry width="50" height="50" relative="1" as="geometry">
            <mxPoint x="180" y="159.5" as="sourcePoint" />
            <mxPoint x="360" y="159.5" as="targetPoint" />
          </mxGeometry>
        </mxCell>
        <mxCell id="HMJsBfPP-Kqhdk2uCQWa-7" value="Recorrer" style="rhombus;whiteSpace=wrap;html=1;" vertex="1" parent="1">
          <mxGeometry x="360" y="120" width="90" height="80" as="geometry" />
        </mxCell>
        <mxCell id="HMJsBfPP-Kqhdk2uCQWa-8" value="Lugares" style="rounded=0;whiteSpace=wrap;html=1;" vertex="1" parent="1">
          <mxGeometry x="600" y="130" width="120" height="60" as="geometry" />
        </mxCell>
        <mxCell id="HMJsBfPP-Kqhdk2uCQWa-11" value="" style="endArrow=classic;html=1;rounded=0;" edge="1" parent="1">
          <mxGeometry width="50" height="50" relative="1" as="geometry">
            <mxPoint x="450" y="160" as="sourcePoint" />
            <mxPoint x="590" y="160" as="targetPoint" />
          </mxGeometry>
        </mxCell>
        <mxCell id="HMJsBfPP-Kqhdk2uCQWa-25" value="" style="endArrow=classic;html=1;rounded=0;" edge="1" parent="1">
          <mxGeometry width="50" height="50" relative="1" as="geometry">
            <mxPoint x="407.02" y="200" as="sourcePoint" />
            <mxPoint x="407" y="270" as="targetPoint" />
          </mxGeometry>
        </mxCell>
        <mxCell id="HMJsBfPP-Kqhdk2uCQWa-26" value="Matricula" style="ellipse;whiteSpace=wrap;html=1;" vertex="1" parent="1">
          <mxGeometry x="-60" y="50" width="120" height="80" as="geometry" />
        </mxCell>
        <mxCell id="HMJsBfPP-Kqhdk2uCQWa-33" value="FechaRecorrido" style="ellipse;whiteSpace=wrap;html=1;" vertex="1" parent="1">
          <mxGeometry x="380" y="40" width="120" height="80" as="geometry" />
        </mxCell>
        <mxCell id="HMJsBfPP-Kqhdk2uCQWa-34" value="Nombre" style="ellipse;whiteSpace=wrap;html=1;" vertex="1" parent="1">
          <mxGeometry x="460" y="350" width="120" height="80" as="geometry" />
        </mxCell>
        <mxCell id="HMJsBfPP-Kqhdk2uCQWa-35" value="DNI" style="ellipse;whiteSpace=wrap;html=1;" vertex="1" parent="1">
          <mxGeometry x="330" y="350" width="120" height="80" as="geometry" />
        </mxCell>
        <mxCell id="HMJsBfPP-Kqhdk2uCQWa-36" value="ConductorID" style="ellipse;whiteSpace=wrap;html=1;" vertex="1" parent="1">
          <mxGeometry x="200" y="340" width="120" height="80" as="geometry" />
        </mxCell>
        <mxCell id="HMJsBfPP-Kqhdk2uCQWa-37" value="Nombre" style="ellipse;whiteSpace=wrap;html=1;" vertex="1" parent="1">
          <mxGeometry x="690" y="180" width="120" height="80" as="geometry" />
        </mxCell>
        <mxCell id="HMJsBfPP-Kqhdk2uCQWa-38" value="LugarID" style="ellipse;whiteSpace=wrap;html=1;" vertex="1" parent="1">
          <mxGeometry x="650" y="20" width="120" height="80" as="geometry" />
        </mxCell>
        <mxCell id="HMJsBfPP-Kqhdk2uCQWa-39" value="Modelo&lt;br&gt;" style="ellipse;whiteSpace=wrap;html=1;" vertex="1" parent="1">
          <mxGeometry x="-140" y="130" width="120" height="80" as="geometry" />
        </mxCell>
        <mxCell id="HMJsBfPP-Kqhdk2uCQWa-40" value="1" style="text;html=1;align=center;verticalAlign=middle;resizable=0;points=[];autosize=1;strokeColor=none;fillColor=none;" vertex="1" parent="1">
          <mxGeometry x="165" y="128" width="30" height="30" as="geometry" />
        </mxCell>
        <mxCell id="HMJsBfPP-Kqhdk2uCQWa-41" value="1" style="text;html=1;align=center;verticalAlign=middle;resizable=0;points=[];autosize=1;strokeColor=none;fillColor=none;" vertex="1" parent="1">
          <mxGeometry x="170" y="170" width="30" height="30" as="geometry" />
        </mxCell>
        <mxCell id="HMJsBfPP-Kqhdk2uCQWa-42" value="1" style="text;html=1;align=center;verticalAlign=middle;resizable=0;points=[];autosize=1;strokeColor=none;fillColor=none;" vertex="1" parent="1">
          <mxGeometry x="300" y="128" width="30" height="30" as="geometry" />
        </mxCell>
        <mxCell id="HMJsBfPP-Kqhdk2uCQWa-43" value="N" style="text;html=1;align=center;verticalAlign=middle;resizable=0;points=[];autosize=1;strokeColor=none;fillColor=none;" vertex="1" parent="1">
          <mxGeometry x="310" y="170" width="30" height="30" as="geometry" />
        </mxCell>
        <mxCell id="HMJsBfPP-Kqhdk2uCQWa-44" value="N" style="text;html=1;align=center;verticalAlign=middle;resizable=0;points=[];autosize=1;strokeColor=none;fillColor=none;" vertex="1" parent="1">
          <mxGeometry x="550" y="120" width="30" height="30" as="geometry" />
        </mxCell>
        <mxCell id="HMJsBfPP-Kqhdk2uCQWa-45" value="N,M" style="text;html=1;align=center;verticalAlign=middle;resizable=0;points=[];autosize=1;strokeColor=none;fillColor=none;" vertex="1" parent="1">
          <mxGeometry x="360" y="100" width="50" height="30" as="geometry" />
        </mxCell>
        <mxCell id="HMJsBfPP-Kqhdk2uCQWa-46" value="1" style="text;html=1;align=center;verticalAlign=middle;resizable=0;points=[];autosize=1;strokeColor=none;fillColor=none;" vertex="1" parent="1">
          <mxGeometry x="550" y="170" width="30" height="30" as="geometry" />
        </mxCell>
        <mxCell id="HMJsBfPP-Kqhdk2uCQWa-47" value="N,M" style="text;html=1;align=center;verticalAlign=middle;resizable=0;points=[];autosize=1;strokeColor=none;fillColor=none;" vertex="1" parent="1">
          <mxGeometry x="415" y="190" width="50" height="30" as="geometry" />
        </mxCell>
        <mxCell id="HMJsBfPP-Kqhdk2uCQWa-48" value="1" style="text;html=1;align=center;verticalAlign=middle;resizable=0;points=[];autosize=1;strokeColor=none;fillColor=none;" vertex="1" parent="1">
          <mxGeometry x="330" y="250" width="30" height="30" as="geometry" />
        </mxCell>
        <mxCell id="HMJsBfPP-Kqhdk2uCQWa-49" value="N" style="text;html=1;align=center;verticalAlign=middle;resizable=0;points=[];autosize=1;strokeColor=none;fillColor=none;" vertex="1" parent="1">
          <mxGeometry x="425" y="250" width="30" height="30" as="geometry" />
        </mxCell>
        <mxCell id="HMJsBfPP-Kqhdk2uCQWa-50" value="Zoom" style="rounded=0;whiteSpace=wrap;html=1;" vertex="1" parent="1">
          <mxGeometry x="285" y="640" width="120" height="60" as="geometry" />
        </mxCell>
        <mxCell id="HMJsBfPP-Kqhdk2uCQWa-69" value="Peligro de Extincion" style="ellipse;whiteSpace=wrap;html=1;" vertex="1" parent="1">
          <mxGeometry x="690" y="920" width="120" height="80" as="geometry" />
        </mxCell>
        <mxCell id="HMJsBfPP-Kqhdk2uCQWa-71" value="Nombre Cientifico" style="ellipse;whiteSpace=wrap;html=1;" vertex="1" parent="1">
          <mxGeometry x="680" y="710" width="120" height="80" as="geometry" />
        </mxCell>
        <mxCell id="HMJsBfPP-Kqhdk2uCQWa-72" value="NombreVulgar" style="ellipse;whiteSpace=wrap;html=1;" vertex="1" parent="1">
          <mxGeometry x="680" y="820" width="120" height="80" as="geometry" />
        </mxCell>
        <mxCell id="HMJsBfPP-Kqhdk2uCQWa-75" value="Presupesto Anual" style="ellipse;whiteSpace=wrap;html=1;" vertex="1" parent="1">
          <mxGeometry x="20" y="890" width="120" height="80" as="geometry" />
        </mxCell>
        <mxCell id="HMJsBfPP-Kqhdk2uCQWa-77" value="Animal" style="ellipse;whiteSpace=wrap;html=1;" vertex="1" parent="1">
          <mxGeometry x="30" y="1010" width="120" height="80" as="geometry" />
        </mxCell>
        <mxCell id="HMJsBfPP-Kqhdk2uCQWa-78" value="Año de Nacimiento" style="ellipse;whiteSpace=wrap;html=1;" vertex="1" parent="1">
          <mxGeometry x="505" y="810" width="120" height="80" as="geometry" />
        </mxCell>
        <mxCell id="HMJsBfPP-Kqhdk2uCQWa-79" value="Sexo" style="ellipse;whiteSpace=wrap;html=1;" vertex="1" parent="1">
          <mxGeometry x="505" y="710" width="120" height="80" as="geometry" />
        </mxCell>
        <mxCell id="HMJsBfPP-Kqhdk2uCQWa-80" value="Especie" style="rounded=0;whiteSpace=wrap;html=1;" vertex="1" parent="1">
          <mxGeometry x="680" y="640" width="120" height="60" as="geometry" />
        </mxCell>
        <mxCell id="HMJsBfPP-Kqhdk2uCQWa-81" value="Animal" style="rounded=0;whiteSpace=wrap;html=1;" vertex="1" parent="1">
          <mxGeometry x="500" y="640" width="120" height="60" as="geometry" />
        </mxCell>
        <mxCell id="HMJsBfPP-Kqhdk2uCQWa-82" value="albergar" style="rhombus;whiteSpace=wrap;html=1;" vertex="1" parent="1">
          <mxGeometry x="405" y="650" width="80" height="40" as="geometry" />
        </mxCell>
        <mxCell id="HMJsBfPP-Kqhdk2uCQWa-84" value="pertenecer" style="rhombus;whiteSpace=wrap;html=1;" vertex="1" parent="1">
          <mxGeometry x="600" y="650" width="80" height="40" as="geometry" />
        </mxCell>
        <mxCell id="HMJsBfPP-Kqhdk2uCQWa-85" value="ZooID" style="ellipse;whiteSpace=wrap;html=1;" vertex="1" parent="1">
          <mxGeometry x="30" y="530" width="120" height="80" as="geometry" />
        </mxCell>
        <mxCell id="HMJsBfPP-Kqhdk2uCQWa-86" value="Ciudad" style="ellipse;whiteSpace=wrap;html=1;" vertex="1" parent="1">
          <mxGeometry x="30" y="800" width="120" height="80" as="geometry" />
        </mxCell>
        <mxCell id="HMJsBfPP-Kqhdk2uCQWa-87" value="Pais" style="ellipse;whiteSpace=wrap;html=1;" vertex="1" parent="1">
          <mxGeometry x="40" y="710" width="120" height="80" as="geometry" />
        </mxCell>
        <mxCell id="HMJsBfPP-Kqhdk2uCQWa-88" value="Nombre" style="ellipse;whiteSpace=wrap;html=1;" vertex="1" parent="1">
          <mxGeometry x="30" y="620" width="120" height="80" as="geometry" />
        </mxCell>
        <mxCell id="HMJsBfPP-Kqhdk2uCQWa-89" value="" style="endArrow=classic;html=1;rounded=0;" edge="1" parent="1">
          <mxGeometry width="50" height="50" relative="1" as="geometry">
            <mxPoint x="170" y="650" as="sourcePoint" />
            <mxPoint x="270" y="650" as="targetPoint" />
          </mxGeometry>
        </mxCell>
        <mxCell id="HMJsBfPP-Kqhdk2uCQWa-90" value="NumeroId" style="ellipse;whiteSpace=wrap;html=1;" vertex="1" parent="1">
          <mxGeometry x="485" y="505" width="120" height="80" as="geometry" />
        </mxCell>
        <mxCell id="HMJsBfPP-Kqhdk2uCQWa-91" value="Pais Origen" style="ellipse;whiteSpace=wrap;html=1;" vertex="1" parent="1">
          <mxGeometry x="510" y="910" width="120" height="80" as="geometry" />
        </mxCell>
        <mxCell id="HMJsBfPP-Kqhdk2uCQWa-92" value="Continente" style="ellipse;whiteSpace=wrap;html=1;" vertex="1" parent="1">
          <mxGeometry x="520" y="1020" width="120" height="80" as="geometry" />
        </mxCell>
        <mxCell id="HMJsBfPP-Kqhdk2uCQWa-93" value="EspecieID" style="ellipse;whiteSpace=wrap;html=1;" vertex="1" parent="1">
          <mxGeometry x="660" y="540" width="120" height="80" as="geometry" />
        </mxCell>
        <mxCell id="HMJsBfPP-Kqhdk2uCQWa-94" value="Familia" style="ellipse;whiteSpace=wrap;html=1;" vertex="1" parent="1">
          <mxGeometry x="700" y="1010" width="120" height="80" as="geometry" />
        </mxCell>
        <mxCell id="HMJsBfPP-Kqhdk2uCQWa-95" value="1" style="text;html=1;align=center;verticalAlign=middle;resizable=0;points=[];autosize=1;strokeColor=none;fillColor=none;" vertex="1" parent="1">
          <mxGeometry x="399" y="610" width="30" height="30" as="geometry" />
        </mxCell>
        <mxCell id="HMJsBfPP-Kqhdk2uCQWa-96" value="1" style="text;html=1;align=center;verticalAlign=middle;resizable=0;points=[];autosize=1;strokeColor=none;fillColor=none;" vertex="1" parent="1">
          <mxGeometry x="660" y="610" width="30" height="30" as="geometry" />
        </mxCell>
        <mxCell id="HMJsBfPP-Kqhdk2uCQWa-97" value="1" style="text;html=1;align=center;verticalAlign=middle;resizable=0;points=[];autosize=1;strokeColor=none;fillColor=none;" vertex="1" parent="1">
          <mxGeometry x="610" y="610" width="30" height="30" as="geometry" />
        </mxCell>
        <mxCell id="HMJsBfPP-Kqhdk2uCQWa-98" value="1" style="text;html=1;align=center;verticalAlign=middle;resizable=0;points=[];autosize=1;strokeColor=none;fillColor=none;" vertex="1" parent="1">
          <mxGeometry x="470" y="690" width="30" height="30" as="geometry" />
        </mxCell>
        <mxCell id="HMJsBfPP-Kqhdk2uCQWa-99" value="1" style="text;html=1;align=center;verticalAlign=middle;resizable=0;points=[];autosize=1;strokeColor=none;fillColor=none;" vertex="1" parent="1">
          <mxGeometry x="405" y="690" width="30" height="30" as="geometry" />
        </mxCell>
        <mxCell id="HMJsBfPP-Kqhdk2uCQWa-100" value="1" style="text;html=1;align=center;verticalAlign=middle;resizable=0;points=[];autosize=1;strokeColor=none;fillColor=none;" vertex="1" parent="1">
          <mxGeometry x="650" y="680" width="30" height="30" as="geometry" />
        </mxCell>
        <mxCell id="HMJsBfPP-Kqhdk2uCQWa-101" value="N" style="text;html=1;align=center;verticalAlign=middle;resizable=0;points=[];autosize=1;strokeColor=none;fillColor=none;" vertex="1" parent="1">
          <mxGeometry x="465" y="610" width="30" height="30" as="geometry" />
        </mxCell>
        <mxCell id="HMJsBfPP-Kqhdk2uCQWa-103" value="N" style="text;html=1;align=center;verticalAlign=middle;resizable=0;points=[];autosize=1;strokeColor=none;fillColor=none;" vertex="1" parent="1">
          <mxGeometry x="620" y="690" width="30" height="30" as="geometry" />
        </mxCell>
        <mxCell id="HMJsBfPP-Kqhdk2uCQWa-105" value="N,1" style="text;html=1;align=center;verticalAlign=middle;resizable=0;points=[];autosize=1;strokeColor=none;fillColor=none;" vertex="1" parent="1">
          <mxGeometry x="620" y="630" width="40" height="30" as="geometry" />
        </mxCell>
        <mxCell id="HMJsBfPP-Kqhdk2uCQWa-106" value="1,N" style="text;html=1;align=center;verticalAlign=middle;resizable=0;points=[];autosize=1;strokeColor=none;fillColor=none;" vertex="1" parent="1">
          <mxGeometry x="425" y="620" width="40" height="30" as="geometry" />
        </mxCell>
        <mxCell id="HMJsBfPP-Kqhdk2uCQWa-107" value="" style="edgeStyle=entityRelationEdgeStyle;fontSize=12;html=1;endArrow=ERzeroToMany;endFill=1;startArrow=ERzeroToMany;rounded=0;" edge="1" parent="1">
          <mxGeometry width="100" height="100" relative="1" as="geometry">
            <mxPoint x="160" y="780" as="sourcePoint" />
            <mxPoint x="260" y="680" as="targetPoint" />
            <Array as="points">
              <mxPoint x="170" y="750" />
            </Array>
          </mxGeometry>
        </mxCell>
        <mxCell id="HMJsBfPP-Kqhdk2uCQWa-108" value="" style="edgeStyle=entityRelationEdgeStyle;fontSize=12;html=1;endArrow=ERzeroToMany;endFill=1;rounded=0;entryX=0;entryY=1;entryDx=0;entryDy=0;" edge="1" parent="1" target="HMJsBfPP-Kqhdk2uCQWa-50">
          <mxGeometry width="100" height="100" relative="1" as="geometry">
            <mxPoint x="150" y="920" as="sourcePoint" />
            <mxPoint x="250" y="820" as="targetPoint" />
          </mxGeometry>
        </mxCell>
        <mxCell id="HMJsBfPP-Kqhdk2uCQWa-109" value="" style="edgeStyle=entityRelationEdgeStyle;fontSize=12;html=1;endArrow=ERoneToMany;startArrow=ERmandOne;rounded=0;entryX=0.317;entryY=1.018;entryDx=0;entryDy=0;entryPerimeter=0;" edge="1" parent="1" target="HMJsBfPP-Kqhdk2uCQWa-50">
          <mxGeometry width="100" height="100" relative="1" as="geometry">
            <mxPoint x="160" y="1070" as="sourcePoint" />
            <mxPoint x="260" y="970" as="targetPoint" />
            <Array as="points">
              <mxPoint x="150" y="1300" />
              <mxPoint x="310" y="730" />
              <mxPoint x="320" y="760" />
              <mxPoint x="320" y="900" />
            </Array>
          </mxGeometry>
        </mxCell>
        <mxCell id="HMJsBfPP-Kqhdk2uCQWa-110" value="Procuradores" style="shape=ext;margin=3;double=1;whiteSpace=wrap;html=1;align=center;" vertex="1" parent="1">
          <mxGeometry x="580" y="1220" width="100" height="40" as="geometry" />
        </mxCell>
        <mxCell id="HMJsBfPP-Kqhdk2uCQWa-111" value="Cliente" style="shape=ext;margin=3;double=1;whiteSpace=wrap;html=1;align=center;" vertex="1" parent="1">
          <mxGeometry x="120" y="1220" width="100" height="40" as="geometry" />
        </mxCell>
        <mxCell id="HMJsBfPP-Kqhdk2uCQWa-112" value="Asunto" style="shape=ext;margin=3;double=1;whiteSpace=wrap;html=1;align=center;" vertex="1" parent="1">
          <mxGeometry x="325" y="1220" width="100" height="40" as="geometry" />
        </mxCell>
        <mxCell id="HMJsBfPP-Kqhdk2uCQWa-113" value="Attribute" style="ellipse;whiteSpace=wrap;html=1;align=center;" vertex="1" parent="1">
          <mxGeometry x="265" y="1040" width="100" height="40" as="geometry" />
        </mxCell>
        <mxCell id="HMJsBfPP-Kqhdk2uCQWa-114" value="Attribute" style="ellipse;whiteSpace=wrap;html=1;align=center;" vertex="1" parent="1">
          <mxGeometry x="275" y="1050" width="100" height="40" as="geometry" />
        </mxCell>
        <mxCell id="HMJsBfPP-Kqhdk2uCQWa-115" value="Attribute" style="ellipse;whiteSpace=wrap;html=1;align=center;" vertex="1" parent="1">
          <mxGeometry x="285" y="1040" width="100" height="40" as="geometry" />
        </mxCell>
        <mxCell id="HMJsBfPP-Kqhdk2uCQWa-116" value="Id" style="ellipse;whiteSpace=wrap;html=1;align=center;" vertex="1" parent="1">
          <mxGeometry x="580" y="1290" width="100" height="40" as="geometry" />
        </mxCell>
        <mxCell id="HMJsBfPP-Kqhdk2uCQWa-117" value="Estado" style="ellipse;whiteSpace=wrap;html=1;align=center;" vertex="1" parent="1">
          <mxGeometry x="340" y="1420" width="100" height="40" as="geometry" />
        </mxCell>
        <mxCell id="HMJsBfPP-Kqhdk2uCQWa-118" value="Fecha Inicio" style="ellipse;whiteSpace=wrap;html=1;align=center;" vertex="1" parent="1">
          <mxGeometry x="335" y="1320" width="100" height="40" as="geometry" />
        </mxCell>
        <mxCell id="HMJsBfPP-Kqhdk2uCQWa-119" value="Numero de Expediente" style="ellipse;whiteSpace=wrap;html=1;align=center;" vertex="1" parent="1">
          <mxGeometry x="330" y="1270" width="100" height="40" as="geometry" />
        </mxCell>
        <mxCell id="HMJsBfPP-Kqhdk2uCQWa-120" value="Dni" style="ellipse;whiteSpace=wrap;html=1;align=center;" vertex="1" parent="1">
          <mxGeometry x="-10" y="1220" width="100" height="40" as="geometry" />
        </mxCell>
        <mxCell id="HMJsBfPP-Kqhdk2uCQWa-121" value="Direccion" style="ellipse;whiteSpace=wrap;html=1;align=center;" vertex="1" parent="1">
          <mxGeometry x="-10" y="1340" width="100" height="40" as="geometry" />
        </mxCell>
        <mxCell id="HMJsBfPP-Kqhdk2uCQWa-122" value="Nombre" style="ellipse;whiteSpace=wrap;html=1;align=center;" vertex="1" parent="1">
          <mxGeometry x="-10" y="1270" width="100" height="40" as="geometry" />
        </mxCell>
        <mxCell id="HMJsBfPP-Kqhdk2uCQWa-123" value="ClienteId" style="ellipse;whiteSpace=wrap;html=1;align=center;" vertex="1" parent="1">
          <mxGeometry x="65" y="1169" width="100" height="40" as="geometry" />
        </mxCell>
        <mxCell id="HMJsBfPP-Kqhdk2uCQWa-125" value="Resolver" style="shape=rhombus;perimeter=rhombusPerimeter;whiteSpace=wrap;html=1;align=center;" vertex="1" parent="1">
          <mxGeometry x="440" y="1210" width="120" height="60" as="geometry" />
        </mxCell>
        <mxCell id="HMJsBfPP-Kqhdk2uCQWa-126" value="Solicita" style="shape=rhombus;perimeter=rhombusPerimeter;whiteSpace=wrap;html=1;align=center;" vertex="1" parent="1">
          <mxGeometry x="230" y="1210" width="80" height="60" as="geometry" />
        </mxCell>
        <mxCell id="HMJsBfPP-Kqhdk2uCQWa-128" value="Fecha Final" style="ellipse;whiteSpace=wrap;html=1;align=center;" vertex="1" parent="1">
          <mxGeometry x="350" y="1370" width="100" height="40" as="geometry" />
        </mxCell>
        <mxCell id="HMJsBfPP-Kqhdk2uCQWa-129" value="Dni" style="ellipse;whiteSpace=wrap;html=1;align=center;" vertex="1" parent="1">
          <mxGeometry x="585" y="1340" width="100" height="40" as="geometry" />
        </mxCell>
        <mxCell id="HMJsBfPP-Kqhdk2uCQWa-130" value="Nombre" style="ellipse;whiteSpace=wrap;html=1;align=center;" vertex="1" parent="1">
          <mxGeometry x="585" y="1400" width="100" height="40" as="geometry" />
        </mxCell>
        <mxCell id="HMJsBfPP-Kqhdk2uCQWa-131" value="Direccion" style="ellipse;whiteSpace=wrap;html=1;align=center;" vertex="1" parent="1">
          <mxGeometry x="590" y="1460" width="100" height="40" as="geometry" />
        </mxCell>
        <mxCell id="HMJsBfPP-Kqhdk2uCQWa-133" value="1" style="text;html=1;align=center;verticalAlign=middle;resizable=0;points=[];autosize=1;strokeColor=none;fillColor=none;" vertex="1" parent="1">
          <mxGeometry x="190" y="1190" width="30" height="30" as="geometry" />
        </mxCell>
        <mxCell id="HMJsBfPP-Kqhdk2uCQWa-134" value="1" style="text;html=1;align=center;verticalAlign=middle;resizable=0;points=[];autosize=1;strokeColor=none;fillColor=none;" vertex="1" parent="1">
          <mxGeometry x="200" y="1260" width="30" height="30" as="geometry" />
        </mxCell>
        <mxCell id="HMJsBfPP-Kqhdk2uCQWa-135" value="1" style="text;html=1;align=center;verticalAlign=middle;resizable=0;points=[];autosize=1;strokeColor=none;fillColor=none;" vertex="1" parent="1">
          <mxGeometry x="300" y="1260" width="30" height="30" as="geometry" />
        </mxCell>
        <mxCell id="HMJsBfPP-Kqhdk2uCQWa-137" value="N" style="text;html=1;align=center;verticalAlign=middle;resizable=0;points=[];autosize=1;strokeColor=none;fillColor=none;" vertex="1" parent="1">
          <mxGeometry x="425" y="1240" width="30" height="30" as="geometry" />
        </mxCell>
        <mxCell id="HMJsBfPP-Kqhdk2uCQWa-138" value="1" style="text;html=1;align=center;verticalAlign=middle;resizable=0;points=[];autosize=1;strokeColor=none;fillColor=none;" vertex="1" parent="1">
          <mxGeometry x="550" y="1238" width="30" height="30" as="geometry" />
        </mxCell>
        <mxCell id="HMJsBfPP-Kqhdk2uCQWa-139" value="N" style="text;html=1;align=center;verticalAlign=middle;resizable=0;points=[];autosize=1;strokeColor=none;fillColor=none;" vertex="1" parent="1">
          <mxGeometry x="550" y="1200" width="30" height="30" as="geometry" />
        </mxCell>
      </root>
    </mxGraphModel>
  </diagram>
</mxfile>
